<svg version="1.1" xmlns="http://www.w3.org/2000/svg" viewBox="0 0 448.29347326783477 286.45613258289177" width="1344.8804198035043" height="859.3683977486753">
  <!-- svg-source:excalidraw -->
  
  <defs>
    <style class="style-fonts">
      
    </style>
    
  </defs>
  <g transform="translate(24.07954792520036 212.45616310046987) rotate(0 14 12.5)"><text x="0" y="17.619999999999997" font-family="Excalifont, Xiaolai, Segoe UI Emoji" font-size="20px" fill="#1e1e1e" text-anchor="start" style="white-space: pre;" direction="ltr" dominant-baseline="alphabetic">👁️</text></g><g stroke-linecap="round"><g transform="translate(10.079608960356609 223.78947608875112) rotate(0 24.666656494140625 -10.999984741210938)"><path d="M1.16 0.55 C9.45 -3.22, 42.21 -17.98, 50.43 -21.74 M0.31 -0.2 C8.47 -4.44, 41.73 -20.32, 50.06 -23.72" stroke="#1e1e1e" stroke-width="2" fill="none"></path></g></g><mask></mask><g stroke-linecap="round"><g transform="translate(9.78475492848088 225.6540232463087) rotate(0 24.6666259765625 9.333343505859375)"><path d="M1.1 0.26 C9.31 3.29, 42.56 15.7, 50.46 18.71 M0.22 -0.65 C8.27 2.54, 41.64 16.92, 50.11 20.26" stroke="#1e1e1e" stroke-width="2" fill="none"></path></g></g><mask></mask><g stroke-linecap="round" transform="translate(180.74629597207536 161.78950660632924) rotate(0 57.33331298828125 57.33331298828125)"><path d="M28.67 0 C51.18 -1.86, 72.96 0.92, 86 0 M28.67 0 C51.23 -0.46, 71.33 0.77, 86 0 M86 0 C104.69 -0.47, 114.8 9.41, 114.67 28.67 M86 0 C104.36 1.56, 115.57 7.72, 114.67 28.67 M114.67 28.67 C116.61 49.12, 116.78 68.78, 114.67 86 M114.67 28.67 C113.99 44.26, 113.9 57.84, 114.67 86 M114.67 86 C115.32 105.15, 104.96 114.9, 86 114.67 M114.67 86 C116.71 104.9, 106.4 114, 86 114.67 M86 114.67 C65.73 114.47, 45.33 115.33, 28.67 114.67 M86 114.67 C72.12 114.58, 59.81 115.21, 28.67 114.67 M28.67 114.67 C9.91 115.11, -0.26 105.39, 0 86 M28.67 114.67 C10.93 113.38, 1.3 106.95, 0 86 M0 86 C0.69 71.31, 0.36 60.87, 0 28.67 M0 86 C-0.24 68.39, -0.81 50.17, 0 28.67 M0 28.67 C-0.4 10.46, 9.43 1.12, 28.67 0 M0 28.67 C-1.08 11.24, 9.36 0.5, 28.67 0" stroke="#1e1e1e" stroke-width="2" fill="none"></path></g><g stroke-linecap="round"><g transform="translate(58.74623493691911 222.45616310046987) rotate(0 59.666656494140625 -0.3333282470703125)"><path d="M0.87 0.96 C20.81 0.84, 98.94 -0.67, 118.84 -1.07 M-0.13 0.42 C19.68 0.5, 97.61 0.42, 117.63 0.26" stroke="#e03131" stroke-width="2" fill="none"></path></g><g transform="translate(58.74623493691911 222.45616310046987) rotate(0 59.666656494140625 -0.3333282470703125)"><path d="M94.17 8.9 C101.28 5.88, 104.5 6.25, 117.63 0.26 M94.17 8.9 C99.54 6.5, 105.32 4.64, 117.63 0.26" stroke="#e03131" stroke-width="2" fill="none"></path></g><g transform="translate(58.74623493691911 222.45616310046987) rotate(0 59.666656494140625 -0.3333282470703125)"><path d="M94.1 -8.2 C101.18 -7.22, 104.41 -2.85, 117.63 0.26 M94.1 -8.2 C99.33 -6.59, 105.13 -4.44, 117.63 0.26" stroke="#e03131" stroke-width="2" fill="none"></path></g></g><mask></mask><g stroke-linecap="round"><g transform="translate(60.07954792520036 218.45616310046987) rotate(0 46.66668701171875 -22.333328247070312)"><path d="M-0.5 -0.4 C15.07 -8.14, 78.81 -38.19, 94.27 -45.45 M1.44 -1.66 C16.86 -9.34, 78.29 -36.95, 93.81 -44.33" stroke="#e03131" stroke-width="2" fill="none"></path></g><g transform="translate(60.07954792520036 218.45616310046987) rotate(0 46.66668701171875 -22.333328247070312)"><path d="M76.06 -26.72 C81.87 -31.65, 87.85 -41.57, 93.81 -44.33 M76.06 -26.72 C82.52 -33.06, 88.49 -38.61, 93.81 -44.33" stroke="#e03131" stroke-width="2" fill="none"></path></g><g transform="translate(60.07954792520036 218.45616310046987) rotate(0 46.66668701171875 -22.333328247070312)"><path d="M68.9 -42.25 C77.5 -41.36, 86.15 -45.49, 93.81 -44.33 M68.9 -42.25 C77.89 -43.01, 86.42 -43, 93.81 -44.33" stroke="#e03131" stroke-width="2" fill="none"></path></g></g><mask></mask><g stroke-linecap="round"><g transform="translate(154.74629597207536 171.1228195946105) rotate(0 15.33331298828125 -8.333328247070312)"><path d="M0.43 -0.36 C5.5 -3.05, 25.15 -13.61, 30.17 -16.35 M-0.01 0.64 C5.24 -2.19, 26.13 -14.33, 31.15 -17.15" stroke="#e03131" stroke-width="2" fill="none"></path></g><g transform="translate(154.74629597207536 171.1228195946105) rotate(0 15.33331298828125 -8.333328247070312)"><path d="M19.88 -3.83 C22.25 -8.1, 26.24 -10.94, 31.15 -17.15 M19.88 -3.83 C22.85 -7.21, 26.29 -11.54, 31.15 -17.15" stroke="#e03131" stroke-width="2" fill="none"></path></g><g transform="translate(154.74629597207536 171.1228195946105) rotate(0 15.33331298828125 -8.333328247070312)"><path d="M13.95 -14.19 C17.83 -15.81, 23.36 -15.97, 31.15 -17.15 M13.95 -14.19 C18.57 -14.71, 23.64 -16.17, 31.15 -17.15" stroke="#e03131" stroke-width="2" fill="none"></path></g></g><mask></mask><g stroke-linecap="round"><g transform="translate(184.74629597207536 153.78950660632924) rotate(0 6 -3.6666717529296875)"><path d="M-0.49 0.32 C1.41 -0.86, 9.8 -6.18, 11.88 -7.46 M0.25 0.01 C2.04 -1.06, 9.48 -5.69, 11.39 -6.83" stroke="#e03131" stroke-width="2" fill="none"></path></g><g transform="translate(184.74629597207536 153.78950660632924) rotate(0 6 -3.6666717529296875)"><path d="M7 -1.33 C8.89 -3.47, 10.26 -5.45, 11.39 -6.83 M7 -1.33 C8.37 -3.1, 9.69 -4.53, 11.39 -6.83" stroke="#e03131" stroke-width="2" fill="none"></path></g><g transform="translate(184.74629597207536 153.78950660632924) rotate(0 6 -3.6666717529296875)"><path d="M4.5 -5.44 C7.31 -6.01, 9.63 -6.44, 11.39 -6.83 M4.5 -5.44 C6.59 -6.01, 8.64 -6.24, 11.39 -6.83" stroke="#e03131" stroke-width="2" fill="none"></path></g></g><mask></mask><g stroke-linecap="round"><g transform="translate(198.07954792520036 144.45616310046987) rotate(0 10.3333740234375 -5)"><path d="M-0.12 -0.13 C3.42 -1.85, 17.27 -8.46, 20.7 -10.04 M0.83 -0.67 C4.33 -2.33, 17.09 -7.72, 20.29 -9.36" stroke="#e03131" stroke-width="2" fill="none"></path></g><g transform="translate(198.07954792520036 144.45616310046987) rotate(0 10.3333740234375 -5)"><path d="M12.14 -1.28 C13.7 -2.93, 15.5 -4.85, 20.29 -9.36 M12.14 -1.28 C15.29 -4.16, 18.33 -6.93, 20.29 -9.36" stroke="#e03131" stroke-width="2" fill="none"></path></g><g transform="translate(198.07954792520036 144.45616310046987) rotate(0 10.3333740234375 -5)"><path d="M8.85 -8.41 C11.12 -8.56, 13.61 -8.98, 20.29 -9.36 M8.85 -8.41 C13.23 -8.65, 17.47 -8.8, 20.29 -9.36" stroke="#e03131" stroke-width="2" fill="none"></path></g></g><mask></mask><g stroke-linecap="round"><g transform="translate(221.41292194863786 133.1228195946105) rotate(0 13.66668701171875 -7.3333282470703125)"><path d="M0.04 -0.04 C4.58 -2.4, 22.57 -11.78, 27.15 -14.29 M-0.61 -0.54 C3.86 -3.04, 21.98 -12.7, 26.63 -15.07" stroke="#e03131" stroke-width="2" fill="none"></path></g><g transform="translate(221.41292194863786 133.1228195946105) rotate(0 13.66668701171875 -7.3333282470703125)"><path d="M16.17 -3.61 C19.05 -7.06, 22.55 -9.7, 26.63 -15.07 M16.17 -3.61 C18.73 -5.79, 20.71 -8.28, 26.63 -15.07" stroke="#e03131" stroke-width="2" fill="none"></path></g><g transform="translate(221.41292194863786 133.1228195946105) rotate(0 13.66668701171875 -7.3333282470703125)"><path d="M11.26 -13.01 C15.49 -13.84, 20.36 -13.86, 26.63 -15.07 M11.26 -13.01 C14.92 -13.13, 17.99 -13.55, 26.63 -15.07" stroke="#e03131" stroke-width="2" fill="none"></path></g></g><mask></mask><g stroke-linecap="round"><g transform="translate(246.07954792520036 118.45616310046987) rotate(0 21.66668701171875 -11.333328247070312)"><path d="M-0.18 0.37 C7.07 -3.47, 36.24 -19.29, 43.55 -23.11 M0.73 0.09 C7.93 -3.7, 36.11 -18.97, 43.23 -22.63" stroke="#e03131" stroke-width="2" fill="none"></path></g><g transform="translate(246.07954792520036 118.45616310046987) rotate(0 21.66668701171875 -11.333328247070312)"><path d="M26.84 -4.49 C32.55 -9.63, 36.1 -15, 43.23 -22.63 M26.84 -4.49 C32 -9.88, 37.02 -16.4, 43.23 -22.63" stroke="#e03131" stroke-width="2" fill="none"></path></g><g transform="translate(246.07954792520036 118.45616310046987) rotate(0 21.66668701171875 -11.333328247070312)"><path d="M19.01 -19.27 C27.12 -19.86, 33.07 -20.7, 43.23 -22.63 M19.01 -19.27 C26.73 -19.96, 34.26 -21.74, 43.23 -22.63" stroke="#e03131" stroke-width="2" fill="none"></path></g></g><mask></mask><g stroke-linecap="round"><g transform="translate(288.74629597207536 95.78950660632924) rotate(0 28.6666259765625 -16)"><path d="M0.47 -0.96 C10.21 -6.39, 48.42 -26.76, 58.04 -31.75 M-0.74 1.15 C8.94 -4.73, 47.69 -28.11, 57.47 -33.75" stroke="#e03131" stroke-width="2" fill="none"></path></g><g transform="translate(288.74629597207536 95.78950660632924) rotate(0 28.6666259765625 -16)"><path d="M41.61 -14.42 C44.12 -18.47, 50.37 -23.35, 57.47 -33.75 M41.61 -14.42 C47.29 -22.55, 53.35 -30.48, 57.47 -33.75" stroke="#e03131" stroke-width="2" fill="none"></path></g><g transform="translate(288.74629597207536 95.78950660632924) rotate(0 28.6666259765625 -16)"><path d="M32.9 -29.14 C37.83 -29.28, 46.41 -30.23, 57.47 -33.75 M32.9 -29.14 C41.98 -31.6, 51.44 -33.78, 57.47 -33.75" stroke="#e03131" stroke-width="2" fill="none"></path></g></g><mask></mask><g stroke-linecap="round"><g transform="translate(346.07954792520036 63.78950660632924) rotate(0 45.66668701171875 -26.666671752929688)"><path d="M0.71 0.25 C16 -8.3, 77.12 -43.51, 92.21 -52.24 M-0.38 -0.67 C14.79 -9.44, 76.59 -44.93, 91.73 -53.79" stroke="#e03131" stroke-width="2" fill="none"></path></g><g transform="translate(346.07954792520036 63.78950660632924) rotate(0 45.66668701171875 -26.666671752929688)"><path d="M75.68 -34.62 C81.69 -39.75, 88.55 -47.86, 91.73 -53.79 M75.68 -34.62 C81.52 -43, 88.33 -49.11, 91.73 -53.79" stroke="#e03131" stroke-width="2" fill="none"></path></g><g transform="translate(346.07954792520036 63.78950660632924) rotate(0 45.66668701171875 -26.666671752929688)"><path d="M67.11 -49.42 C75.92 -49.58, 85.68 -52.67, 91.73 -53.79 M67.11 -49.42 C76.3 -51.85, 86.53 -52.04, 91.73 -53.79" stroke="#e03131" stroke-width="2" fill="none"></path></g></g><mask></mask></svg>