<svg version="1.1" xmlns="http://www.w3.org/2000/svg" viewBox="0 0 306.38770871870224 134.6666259765625" width="919.1631261561067" height="403.9998779296875">
  <!-- svg-source:excalidraw -->
  
  <defs>
    <style class="style-fonts">
      
    </style>
    
  </defs>
  <g transform="translate(25.054334695264743 60.666656494140625) rotate(0 14 12.5)"><text x="0" y="17.619999999999997" font-family="Excalifont, Xiaolai, Segoe UI Emoji" font-size="20px" fill="#1e1e1e" text-anchor="start" style="white-space: pre;" direction="ltr" dominant-baseline="alphabetic">👁️</text></g><g stroke-linecap="round"><g transform="translate(11.054395730420993 71.99996948242188) rotate(0 24.666656494140625 -10.999984741210938)"><path d="M-1.05 0.06 C7.31 -3.44, 41.31 -17.28, 49.64 -20.91 M0.59 -0.95 C8.87 -4.77, 40.96 -19.24, 48.86 -22.46" stroke="#1e1e1e" stroke-width="2" fill="none"></path></g></g><mask></mask><g stroke-linecap="round"><g transform="translate(10.759541698545263 73.86451663997951) rotate(0 24.6666259765625 9.333343505859375)"><path d="M0.66 0.4 C8.73 3.83, 41.28 16.86, 49.41 19.83 M-0.46 -0.44 C7.39 2.75, 40.3 15.03, 48.5 18.32" stroke="#1e1e1e" stroke-width="2" fill="none"></path></g></g><mask></mask><g stroke-linecap="round" transform="translate(181.72108274213974 10) rotate(0 57.33331298828125 57.33331298828125)"><path d="M28.67 0 C44.43 -0.37, 62.85 -0.33, 86 0 M28.67 0 C48.82 0.38, 71.18 -0.8, 86 0 M86 0 C105.54 -0.66, 115.32 10.71, 114.67 28.67 M86 0 C106.07 -0.11, 113.79 10.33, 114.67 28.67 M114.67 28.67 C116.27 46.19, 116.07 67.49, 114.67 86 M114.67 28.67 C115.28 43.23, 113.54 57.19, 114.67 86 M114.67 86 C116.61 105.98, 105.27 116.11, 86 114.67 M114.67 86 C114.48 106.95, 105.13 113.22, 86 114.67 M86 114.67 C64.98 113.96, 41.16 114.94, 28.67 114.67 M86 114.67 C70.03 115.73, 52.42 115.36, 28.67 114.67 M28.67 114.67 C10.02 115.18, -1.8 106.27, 0 86 M28.67 114.67 C9.07 112.81, -1.34 103.39, 0 86 M0 86 C-0.48 64.47, -1.74 45.22, 0 28.67 M0 86 C0.08 72.03, -0.44 56.35, 0 28.67 M0 28.67 C0.06 8.75, 7.88 0.09, 28.67 0 M0 28.67 C-0.13 10.85, 8 0.05, 28.67 0" stroke="#1e1e1e" stroke-width="2" fill="none"></path></g><g stroke-linecap="round"><g transform="translate(59.72102170698349 70.66665649414062) rotate(0 59.666656494140625 -0.3333282470703125)"><path d="M0.31 0.07 C20.08 0.06, 99.4 0.3, 119.38 0.03 M-0.99 -0.94 C18.57 -1.29, 98.31 -1.77, 118.45 -1.73" stroke="#e03131" stroke-width="2" fill="none"></path></g><g transform="translate(59.72102170698349 70.66665649414062) rotate(0 59.666656494140625 -0.3333282470703125)"><path d="M94.98 6.88 C103.54 3.79, 113.04 2.02, 118.45 -1.73 M94.98 6.88 C99.29 5.62, 106.61 2.41, 118.45 -1.73" stroke="#e03131" stroke-width="2" fill="none"></path></g><g transform="translate(59.72102170698349 70.66665649414062) rotate(0 59.666656494140625 -0.3333282470703125)"><path d="M94.93 -10.22 C103.52 -7.15, 113.04 -2.76, 118.45 -1.73 M94.93 -10.22 C99.29 -7.6, 106.61 -6.94, 118.45 -1.73" stroke="#e03131" stroke-width="2" fill="none"></path></g></g><mask></mask></svg>