<svg version="1.1" xmlns="http://www.w3.org/2000/svg" viewBox="0 0 308.43725820668055 293.33331298828125" width="925.3117746200417" height="879.9999389648438">
  <!-- svg-source:excalidraw -->
  
  <defs>
    <style class="style-fonts">
      
    </style>
    
  </defs>
  <g transform="translate(25.103823148086576 60.666656494140625) rotate(0 14 12.5)"><text x="0" y="17.619999999999997" font-family="Excalifont, Xiaolai, Segoe UI Emoji" font-size="20px" fill="#1e1e1e" text-anchor="start" style="white-space: pre;" direction="ltr" dominant-baseline="alphabetic">👁️</text></g><g stroke-linecap="round"><g transform="translate(11.103884183242826 71.99996948242188) rotate(0 24.666656494140625 -10.999984741210938)"><path d="M-1.1 -0.79 C7.26 -4.51, 41.41 -18.01, 49.87 -21.44 M0.52 1.4 C8.8 -2.74, 41.11 -19.14, 49.21 -23.27" stroke="#1e1e1e" stroke-width="2" fill="none"></path></g></g><mask></mask><g stroke-linecap="round"><g transform="translate(10.809030151367097 73.86451663997946) rotate(0 24.6666259765625 9.333343505859375)"><path d="M0.54 0.56 C9 3.91, 41.62 16.37, 49.68 19.3 M-0.64 -0.19 C7.8 2.87, 40.83 14.29, 48.91 17.51" stroke="#1e1e1e" stroke-width="2" fill="none"></path></g></g><mask></mask><g stroke-linecap="round" transform="translate(181.7705711949618 10) rotate(0 57.33331298828125 57.33331298828125)"><path d="M28.67 0 C49.5 -0.92, 67.31 -0.15, 86 0 M28.67 0 C49.21 -1.01, 70.86 0.15, 86 0 M86 0 C105.27 1.88, 113.69 8.22, 114.67 28.67 M86 0 C106.87 -0.95, 115.22 8.33, 114.67 28.67 M114.67 28.67 C115.69 47.78, 112.82 69.87, 114.67 86 M114.67 28.67 C114.5 46.53, 114.73 64.38, 114.67 86 M114.67 86 C114.12 105.24, 104.73 113.18, 86 114.67 M114.67 86 C113.64 105.22, 106.85 113.19, 86 114.67 M86 114.67 C73.21 116.72, 63.05 115.23, 28.67 114.67 M86 114.67 C65.47 114.72, 46.16 115.39, 28.67 114.67 M28.67 114.67 C7.99 113.2, -0.51 103.88, 0 86 M28.67 114.67 C7.53 112.4, -0.61 106.29, 0 86 M0 86 C-1.48 66.94, 1.35 46.36, 0 28.67 M0 86 C1.22 67.15, -0.31 47.96, 0 28.67 M0 28.67 C1.86 9.87, 10.43 -0.47, 28.67 0 M0 28.67 C-0.66 7.4, 9.52 -1.98, 28.67 0" stroke="#1e1e1e" stroke-width="2" fill="none"></path></g><g stroke-linecap="round" transform="translate(183.77063223011805 168.66668701171875) rotate(0 57.33331298828125 57.33331298828125)"><path d="M28.67 0 C46.61 0.23, 67.67 1.22, 86 0 M28.67 0 C49.65 0.87, 69.98 1.33, 86 0 M86 0 C104.14 -1.34, 116.2 8.73, 114.67 28.67 M86 0 C105.67 -1.22, 116.12 9.78, 114.67 28.67 M114.67 28.67 C113.04 44.72, 115.31 60.22, 114.67 86 M114.67 28.67 C115.3 43.62, 114.54 60.2, 114.67 86 M114.67 86 C114.28 103.63, 104.22 114.76, 86 114.67 M114.67 86 C116.41 103.63, 103.15 115.38, 86 114.67 M86 114.67 C68.39 115.55, 48.33 113.82, 28.67 114.67 M86 114.67 C69.4 115.55, 52.5 114.01, 28.67 114.67 M28.67 114.67 C9.04 113.44, -1.76 103.14, 0 86 M28.67 114.67 C8.94 115.85, 1.35 105.79, 0 86 M0 86 C1.9 68.97, 0.93 47.49, 0 28.67 M0 86 C-1.2 69.49, 0.48 54.12, 0 28.67 M0 28.67 C0.88 9.08, 8.99 -1.88, 28.67 0 M0 28.67 C-0.04 7.57, 11.2 -0.07, 28.67 0" stroke="#1e1e1e" stroke-width="2" fill="none"></path></g><g stroke-linecap="round"><g transform="translate(59.770510159805326 70.66665649414062) rotate(0 59.66665649414074 -0.3333282470703125)"><path d="M0.01 0.78 C20.08 0.88, 100.12 0.42, 119.94 0.05 M-1.44 0.14 C18.56 -0.06, 99.42 -1.58, 119.31 -1.7" stroke="#e03131" stroke-width="2" fill="none"></path></g><g transform="translate(59.770510159805326 70.66665649414062) rotate(0 59.66665649414074 -0.3333282470703125)"><path d="M95.93 7.16 C103.4 5.85, 109.43 1.78, 119.31 -1.7 M95.93 7.16 C101.42 5.93, 106.3 2.25, 119.31 -1.7" stroke="#e03131" stroke-width="2" fill="none"></path></g><g transform="translate(59.770510159805326 70.66665649414062) rotate(0 59.66665649414074 -0.3333282470703125)"><path d="M95.7 -9.94 C103.15 -6.77, 109.24 -6.35, 119.31 -1.7 M95.7 -9.94 C101.31 -7.19, 106.24 -6.88, 119.31 -1.7" stroke="#e03131" stroke-width="2" fill="none"></path></g></g><mask></mask><g stroke-linecap="round"><g transform="translate(60.437197171524076 74.66665649414062) rotate(0 47.666687011718864 24.333328247070312)"><path d="M-0.14 0.58 C15.45 8.48, 78.44 39.48, 94.3 47.53 M-1.68 -0.16 C14.21 7.83, 80.51 40.05, 96.48 48.46" stroke="#e03131" stroke-width="2" fill="none"></path></g><g transform="translate(60.437197171524076 74.66665649414062) rotate(0 47.666687011718864 24.333328247070312)"><path d="M71.65 45.54 C81.64 44.92, 87.79 47.23, 96.48 48.46 M71.65 45.54 C79.79 46.15, 87.91 46.69, 96.48 48.46" stroke="#e03131" stroke-width="2" fill="none"></path></g><g transform="translate(60.437197171524076 74.66665649414062) rotate(0 47.666687011718864 24.333328247070312)"><path d="M79.33 30.27 C86.54 35.18, 89.91 43.05, 96.48 48.46 M79.33 30.27 C84.91 35.72, 90.59 41.11, 96.48 48.46" stroke="#e03131" stroke-width="2" fill="none"></path></g></g><mask></mask><g stroke-linecap="round"><g transform="translate(155.7705711949618 123.33331298828125) rotate(0 11.6666259765625 7.333343505859375)"><path d="M-0.47 -0.52 C3.41 1.89, 19.31 12.26, 23.21 14.77 M0.29 0.4 C4.09 2.62, 18.75 11.41, 22.71 13.85" stroke="#e03131" stroke-width="2" fill="none"></path></g><g transform="translate(155.7705711949618 123.33331298828125) rotate(0 11.6666259765625 7.333343505859375)"><path d="M9.19 11.16 C12.44 11.83, 17.11 12.26, 22.71 13.85 M9.19 11.16 C13.07 11.66, 16.52 12.69, 22.71 13.85" stroke="#e03131" stroke-width="2" fill="none"></path></g><g transform="translate(155.7705711949618 123.33331298828125) rotate(0 11.6666259765625 7.333343505859375)"><path d="M14.09 3.1 C15.94 6.08, 19.2 8.82, 22.71 13.85 M14.09 3.1 C16.63 5.8, 18.74 9.04, 22.71 13.85" stroke="#e03131" stroke-width="2" fill="none"></path></g></g><mask></mask><g stroke-linecap="round"><g transform="translate(179.7705711949618 139.33331298828125) rotate(0 8 5.333343505859375)"><path d="M-0.13 0.1 C2.55 1.94, 12.88 8.8, 15.59 10.53 M0.81 -0.32 C3.7 1.64, 14.11 9.28, 16.62 11.15" stroke="#e03131" stroke-width="2" fill="none"></path></g><g transform="translate(179.7705711949618 139.33331298828125) rotate(0 8 5.333343505859375)"><path d="M7.4 8.43 C9.45 8.67, 11.21 9.73, 16.62 11.15 M7.4 8.43 C9.75 9.2, 12.18 9.71, 16.62 11.15" stroke="#e03131" stroke-width="2" fill="none"></path></g><g transform="translate(179.7705711949618 139.33331298828125) rotate(0 8 5.333343505859375)"><path d="M11.3 3.14 C12.49 4.51, 13.42 6.7, 16.62 11.15 M11.3 3.14 C12.65 5.27, 14.06 7.18, 16.62 11.15" stroke="#e03131" stroke-width="2" fill="none"></path></g></g><mask></mask><g stroke-linecap="round"><g transform="translate(195.7705711949618 150) rotate(0 10.333251953125 6.666656494140625)"><path d="M-0.41 -0.14 C-0.58 0.03, -4.97 -1.05, -1.19 1.12 C2.59 3.3, 18.43 10.86, 22.27 12.91 M0.39 -0.69 C0.16 -0.45, -5.16 -0.62, -1.55 1.71 C2.06 4.04, 18.15 11.26, 22.05 13.29" stroke="#e03131" stroke-width="2" fill="none"></path></g><g transform="translate(195.7705711949618 150) rotate(0 10.333251953125 6.666656494140625)"><path d="M9 11.98 C12.45 12.56, 15.98 13.07, 22.05 13.29 M9 11.98 C11.84 12.02, 14.66 12.57, 22.05 13.29" stroke="#e03131" stroke-width="2" fill="none"></path></g><g transform="translate(195.7705711949618 150) rotate(0 10.333251953125 6.666656494140625)"><path d="M12.89 3.9 C15.27 6.7, 17.72 9.44, 22.05 13.29 M12.89 3.9 C14.85 5.74, 16.81 8.08, 22.05 13.29" stroke="#e03131" stroke-width="2" fill="none"></path></g></g><mask></mask></svg>