<?xml version="1.0" encoding="UTF-8" standalone="no"?>
<svg
   version="1.1"
   viewBox="0 0 400 400"
   id="logo"
   width="400"
   sodipodi:docname="nook-lighthouse.svg"
   inkscape:version="1.3.2 (091e20e, 2023-11-25, custom)"
   height="400"
   xmlns:inkscape="http://www.inkscape.org/namespaces/inkscape"
   xmlns:sodipodi="http://sodipodi.sourceforge.net/DTD/sodipodi-0.dtd"
   xmlns="http://www.w3.org/2000/svg"
   xmlns:svg="http://www.w3.org/2000/svg">
  <sodipodi:namedview
     id="namedview1"
     pagecolor="#006360"
     bordercolor="#000000"
     borderopacity="0.25"
     inkscape:showpageshadow="2"
     inkscape:pageopacity="0.0"
     inkscape:pagecheckerboard="true"
     inkscape:deskcolor="#d1d1d1"
     inkscape:export-bgcolor="#00636000"
     inkscape:zoom="4.2142445"
     inkscape:cx="203.59521"
     inkscape:cy="194.93411"
     inkscape:window-width="3840"
     inkscape:window-height="2054"
     inkscape:window-x="-11"
     inkscape:window-y="-11"
     inkscape:window-maximized="1"
     inkscape:current-layer="layer1"
     showguides="false" />
  <defs
     id="defs134">
    <style
       id="style132">.cls-2{stroke-width:0;fill:#fff}</style>
  </defs>
  <g
     id="g224"
     transform="matrix(1.9740169,0,0,1.9740169,-503.53224,-219.92028)"
     inkscape:label="original"
     sodipodi:insensitive="true"
     style="display:inline">
    <path
       id="path214"
       d="m 323.86,305.1 h -2.37 l -4.17,-38.24 a 2.22,2.22 0 0 0 2.07,-2.22 c 0,-1.18 -1,-2.23 -2.23,-2.23 h -0.33 l -3.89,-35.68 a 2.23,2.23 0 0 0 1.73,-2.17 c 0,-1.22 -0.99,-2.22 -2.21,-2.23 l -2.69,-24.67 3.8,-5.99 a 0.86,0.86 0 0 0 0.03,-0.85 0.82,0.82 0 0 0 -0.73,-0.43 h -17.74 a 0.8,0.8 0 0 0 -0.22,-0.03 l -24.37,0.03 a 0.83,0.83 0 0 0 -0.73,0.43 c -0.15,0.27 -0.14,0.59 0.03,0.85 l 3.8,5.99 -2.69,24.67 a 2.234,2.234 0 0 0 -2.21,2.23 c 0,1.06 0.74,1.94 1.73,2.17 l -3.89,35.68 h -0.33 c -1.23,0 -2.23,1 -2.23,2.23 0,1.23 0.92,2.13 2.07,2.22 l -4.17,38.24 h -2.37 c -2.47,0 -4.47,2 -4.47,4.47 0,2.47 2,4.47 4.47,4.47 h 64.32 c 2.47,0 4.47,-2 4.47,-4.47 0,-2.47 -2,-4.47 -4.47,-4.47 z m -35.97,-94.6 c 0,-2.09 1.71,-3.81 3.81,-3.81 2.09,0 3.81,1.71 3.81,3.81 v 9.33 c 0,0.63 -0.51,1.13 -1.13,1.13 h -5.35 c -0.63,0 -1.13,-0.51 -1.13,-1.13 v -9.33 z m -1.19,12.11 h 9.99 c 1.08,0 1.95,0.87 1.95,1.95 0,1.08 -0.87,1.95 -1.95,1.95 h -9.99 c -1.08,0 -1.95,-0.87 -1.95,-1.95 0,-1.08 0.87,-1.95 1.95,-1.95 m 11.83,22.06 v 14.72 c 0,0.92 -0.75,1.67 -1.67,1.67 h -10.34 c -0.92,0 -1.67,-0.75 -1.67,-1.67 v -14.72 c 0,-3.35 2.74,-6.1 6.1,-6.1 h 1.48 c 3.35,0 6.1,2.74 6.1,6.1 m 1.73,58.73 c 0,1.36 -1.11,2.47 -2.47,2.47 H 285.6 c -1.36,0 -2.47,-1.11 -2.47,-2.47 v -17.14 c 0,-4.71 3.86,-8.57 8.57,-8.57 4.71,0 8.57,3.86 8.57,8.57 v 17.14 z m -0.24,-36.8 h -16.64 c -1.08,0 -1.95,-0.87 -1.95,-1.95 0,-1.08 0.87,-1.95 1.95,-1.95 h 16.64 c 1.08,0 1.95,0.87 1.95,1.95 0,1.08 -0.87,1.95 -1.95,1.95"
       class="cls-2" />
    <path
       id="path216"
       d="m 319.03,175.64 v -10.66 c 0,-1.41 -1.15,-2.56 -2.56,-2.56 h -7.56 v -21.61 c 0,0 0,-0.07 -0.01,-0.1 h 0.31 a 2.791,2.791 0 0 0 0,-5.58 h -35.03 a 2.791,2.791 0 0 0 0,5.58 h 0.31 c 0,0 -0.01,0.07 -0.01,0.1 v 21.61 h -7.56 c -1.41,0 -2.56,1.15 -2.56,2.56 v 10.66 a 2.78,2.78 0 0 0 -2.55,2.77 c 0,1.54 1.25,2.79 2.79,2.79 h 1.46 v 3.69 c 0,1.74 1.42,3.16 3.16,3.16 h 44.93 c 1.74,0 3.16,-1.42 3.16,-3.16 v -3.69 h 1.46 c 1.54,0 2.79,-1.25 2.79,-2.79 0,-1.46 -1.13,-2.65 -2.55,-2.77 z m -1.68,-10.66 v 10.63 h -2.46 v -11.52 h 1.58 c 0.49,0 0.88,0.4 0.88,0.88 z m -28.97,-0.89 v 6.68 h -2.57 c -0.26,0 -0.5,-0.06 -0.72,-0.17 v -6.51 z m 4.96,0 v 6.68 h -3.29 v -6.68 z m 4.97,0 v 6.51 c -0.22,0.11 -0.46,0.17 -0.72,0.17 h -2.57 v -6.68 z m -23.16,8.48 c 0.37,0.35 0.87,0.57 1.43,0.57 h 1.87 v 2.47 h -3.29 v -3.04 z m 33.09,3.04 h -3.29 v -2.47 h 1.87 c 0.55,0 1.05,-0.22 1.42,-0.57 z m -4.96,0 h -3.29 v -2.47 h 3.29 z m -4.97,0 h -3.29 v -2.47 h 3.29 z m -4.97,0 h -3.29 v -2.47 h 3.29 z m -4.96,0 h -3.29 v -2.47 h 3.29 z m -4.97,0 h -3.29 v -2.47 h 3.29 z m 29.8,0 h -3.29 v -11.52 h 3.29 z m -39.74,0 h -3.29 v -11.52 h 3.29 z m 18.23,-30.07 c 4.18,0 7.57,3.39 7.57,7.57 v 9.31 h -15.13 v -9.31 c 0,-4.18 3.39,-7.57 7.57,-7.57 z m -24.77,18.55 h 1.58 v 11.52 h -2.46 v -10.63 c 0,-0.49 0.4,-0.88 0.88,-0.88 z"
       class="cls-2" />
    <g
       id="g222">
      <path
         id="path218"
         d="m 305.65,127.4 h -27.9 a 2.791,2.791 0 0 0 0,5.58 h 27.9 a 2.791,2.791 0 0 0 0,-5.58"
         class="cls-2" />
      <path
         id="path220"
         d="m 278.76,125.42 h 25.88 c 0.25,0 0.47,-0.17 0.54,-0.41 0.07,-0.24 -0.04,-0.5 -0.25,-0.63 l -5.89,-3.5 -5.24,-4.51 -0.55,-2.43 h 0.37 c 0.24,0 0.45,-0.15 0.53,-0.38 0.08,-0.23 0,-0.48 -0.2,-0.62 l -1.91,-1.42 a 0.555,0.555 0 0 0 -0.67,0 l -1.91,1.42 c -0.19,0.14 -0.27,0.4 -0.2,0.62 0.07,0.22 0.29,0.38 0.53,0.38 h 0.37 l -0.55,2.43 -5.24,4.51 -5.89,3.5 c -0.22,0.13 -0.32,0.39 -0.25,0.63 0.07,0.24 0.29,0.41 0.54,0.41 z"
         class="cls-2" />
    </g>
  </g>
  <g
     inkscape:groupmode="layer"
     id="layer1"
     inkscape:label="mimic">
    <path
       id="rect7"
       style="fill:#00ffff;stroke-width:0.917214"
       d="m 36.811714,169.42534 h 70.879696 l 24.22864,221.78485 H 12.346787 Z"
       sodipodi:nodetypes="ccccc"
       inkscape:label="cone 1" />
    <path
       id="rect7-6"
       style="fill:#00ffff;stroke-width:0.230012"
       d="M 108.3595,169.67867 H 36.793889 l -9.595413,-13.94729 h 89.849504 z"
       sodipodi:nodetypes="ccccc"
       inkscape:label="cone 2" />
    <g
       id="g1"
       inkscape:label="disc 1">
      <circle
         style="fill:#ff00ff;fill-opacity:1;stroke-width:0.899999"
         id="path1"
         cx="8.9999828"
         cy="391.37027"
         r="8.9999866" />
      <circle
         style="fill:#ff00ff;fill-opacity:1;stroke-width:0.899999"
         id="path1-3"
         cx="135.99998"
         cy="391.37027"
         r="8.9999866" />
      <rect
         style="fill:#ff00ff;fill-opacity:1;stroke-width:2.13824"
         id="rect1"
         width="127"
         height="17.999973"
         x="8.9999828"
         y="382.3703" />
    </g>
    <g
       id="g5"
       inkscape:label="disc 2">
      <circle
         style="fill:#ff00ff;fill-opacity:1;stroke-width:0.45"
         id="path1-5"
         cx="21.499996"
         cy="302.56033"
         r="4.4999957" />
      <circle
         style="display:inline;fill:#ff00ff;fill-opacity:1;stroke-width:0.45"
         id="path1-3-7"
         cx="122.5"
         cy="302.56033"
         r="4.4999957" />
      <rect
         style="display:inline;fill:#ff00ff;fill-opacity:1;stroke-width:1.34165"
         id="rect1-6"
         width="100"
         height="8.9999914"
         x="22.121641"
         y="298.06036" />
    </g>
    <g
       id="g6"
       inkscape:label="disc 3">
      <circle
         style="fill:#ff00ff;fill-opacity:1;stroke-width:0.45"
         id="path1-5-6"
         cx="31.499996"
         cy="223.39853"
         r="4.4999957" />
      <circle
         style="display:inline;fill:#ff00ff;fill-opacity:1;stroke-width:0.45"
         id="path1-3-7-6"
         cx="113.49999"
         cy="223.39853"
         r="4.4999957" />
      <rect
         style="display:inline;fill:#ff00ff;fill-opacity:1;stroke-width:1.21121"
         id="rect1-6-1"
         width="81.5"
         height="8.9999914"
         x="32.121639"
         y="218.89856"
         inkscape:label="rect1-6-1" />
    </g>
    <rect
       style="fill:#ffff00;fill-opacity:1;stroke-width:1.02132"
       id="rect6"
       width="34"
       height="38"
       x="55.393944"
       y="344.31445"
       inkscape:label="doors 1" />
    <rect
       style="fill:#ffff00;fill-opacity:1;stroke-width:0.885857"
       id="rect6-9"
       width="27"
       height="36"
       x="58.707664"
       y="262.42471"
       inkscape:label="doors 2" />
    <rect
       style="fill:#ffff00;fill-opacity:1;stroke-width:0.516163"
       id="rect6-9-6"
       width="15"
       height="22"
       x="64.837875"
       y="194.50754"
       inkscape:label="doors 3" />
    <rect
       style="fill:#800080;fill-opacity:1;stroke-width:0.998528"
       id="rect9"
       width="101.1593"
       height="9.4494934"
       x="21.684099"
       y="137.41553"
       inkscape:label="cylinder 1" />
    <g
       id="g8"
       inkscape:label="disc 4">
      <circle
         style="fill:#ff00ff;fill-opacity:1;stroke-width:0.45"
         id="path1-5-6-01"
         cx="26.144604"
         cy="146.77415"
         r="4.4999957" />
      <circle
         style="display:inline;fill:#ff00ff;fill-opacity:1;stroke-width:0.45"
         id="path1-3-7-6-0"
         cx="118.38272"
         cy="146.77415"
         r="4.4999957" />
      <rect
         style="display:inline;fill:#ff00ff;fill-opacity:1;stroke-width:1.28717"
         id="rect1-6-1-3"
         width="92.043648"
         height="8.9999914"
         x="26.766247"
         y="142.27419"
         inkscape:label="rect1-6-1" />
    </g>
    <g
       id="g9"
       inkscape:label="disc 5">
      <circle
         style="fill:#ff00ff;fill-opacity:1;stroke-width:0.555507"
         id="path1-5-6-0"
         cx="18.622164"
         cy="132.24852"
         r="5.5550694" />
      <circle
         style="display:inline;fill:#ff00ff;fill-opacity:1;stroke-width:0.555507"
         id="path1-3-7-6-8"
         cx="125.71687"
         cy="132.24852"
         r="5.5550694" />
      <rect
         style="display:inline;fill:#ff00ff;fill-opacity:1;stroke-width:1.54213"
         id="rect1-6-1-9"
         width="107.02429"
         height="11.110139"
         x="19.389557"
         y="126.69347"
         inkscape:label="rect1-6-1" />
    </g>
    <rect
       style="display:inline;fill:#800080;fill-opacity:1;stroke-width:2.22183"
       id="rect9-7"
       width="68.015594"
       height="69.583382"
       x="38.306843"
       y="52.301655"
       inkscape:label="cylinder 2" />
    <rect
       style="fill:#ffff00;fill-opacity:1;stroke-width:0.959568"
       id="rect6-9-6-5"
       width="29.992235"
       height="38.026184"
       x="57.498554"
       y="79.477852"
       inkscape:label="doors 4" />
    <g
       id="g10"
       inkscape:label="disc 6">
      <circle
         style="fill:#ff00ff;fill-opacity:1;stroke-width:0.555507"
         id="path1-5-6-0-1"
         cx="37.896362"
         cy="52.33007"
         r="5.5550694" />
      <circle
         style="display:inline;fill:#ff00ff;fill-opacity:1;stroke-width:0.555507"
         id="path1-3-7-6-8-2"
         cx="106.68644"
         cy="52.33007"
         r="5.5550694" />
      <rect
         style="display:inline;fill:#ff00ff;fill-opacity:1;stroke-width:1.22676"
         id="rect1-6-1-9-4"
         width="67.727066"
         height="11.110139"
         x="38.663757"
         y="46.775017"
         inkscape:label="rect1-6-1" />
    </g>
  </g>
</svg>
