<svg version="1.1" viewBox="0 0 500 400" xmlns="http://www.w3.org/2000/svg" id="logo" width="100%">
  <defs id="defs134"><style id="style132">.cls-2{stroke-width:0;fill:#fff}</style></defs><path id="rect136" d="M0 0h500v400H0z" style="fill:#006360;stroke-width:0"></path>
  
  <g id="g172" transform="translate(-47.304 -93.18)">
    <g id="g149"><path id="polygon67" d="M182.08 426.67v-46.4l-33.87 5.28v41.88c11.29-.25 22.58-.5 33.87-.76" class="cls-2"></path><path id="path139" d="M288.4 363.7v60.62c24.28-.55 48.56-1.09 72.84-1.64v-70.34c-24.28 3.78-48.56 7.57-72.84 11.35zm54.12 53.68-36.7 1.47v-7.13c2.38-2.17 4.8-4.38 7.27-6.62s4.79-4.48 6.97-6.73c4.6-4.7 7.87-8.52 9.64-11.3s2.67-5.71 2.67-8.75c0-2.78-.95-4.84-2.85-6.17-1.9-1.32-4.53-1.75-7.83-1.33-2.2.28-4.54.96-7.03 2.02s-4.89 2.48-7.19 4.27c-.14.02-.21.02-.34.04v-7.19c1.62-1.02 3.8-2.05 6.57-3.1 2.77-1.06 5.5-1.78 8.18-2.16 5.53-.78 10.02-.1 13.31 2.12s4.97 5.66 4.96 10.25c0 2.07-.29 4.02-.84 5.86-.56 1.84-1.38 3.61-2.45 5.3-1 1.58-2.16 3.16-3.49 4.72-1.32 1.55-2.92 3.27-4.78 5.15-2.65 2.7-5.35 5.28-8.08 7.76-2.74 2.48-5.25 4.73-7.56 6.79 9.86-.51 19.72-1.01 29.57-1.52 0 2.5 0 3.74-.01 6.25z" class="cls-2"></path>
      <g id="g147"><path id="path141" d="M423.33 360.37c-8.73 10.34-17.46 20.67-26.19 31.01 10.02-.78 15.23-1.2 26.17-2.05 0-9.65 0-19.3.02-28.95z" class="cls-2"></path><path id="path143" d="M263.32 383.3c-.75-1.48-1.77-2.54-3.05-3.17s-2.92-.81-4.9-.56c-1.96.25-3.55.85-4.81 1.78-1.26.94-2.24 2.23-2.97 3.88-.68 1.55-1.15 3.51-1.4 5.89-.25 2.37-.38 4.95-.38 7.75 0 3.08.11 5.63.33 7.68s.7 3.87 1.41 5.46c.67 1.49 1.6 2.61 2.83 3.36 1.23.74 2.87 1.06 4.94.95 1.95-.11 3.59-.59 4.9-1.45s2.34-2.12 3.07-3.78c.75-1.7 1.27-3.68 1.54-5.94s.41-4.96.42-8.12c0-3.12-.12-5.81-.39-8.07-.27-2.27-.79-4.16-1.55-5.66z" class="cls-2"></path><path id="path145" d="M520.36 356.18c0-1.88-.63-4.77-1.41-6.42l-19.64-42.09c-1.02-2.27-3.76-3.6-6.18-3.13L82.88 382.93c-2.5.47-4.38 2.82-4.38 5.32l.08 52.49c0 2.58 2.11 4.85 4.77 4.93l411.43 13.69h.55c1.8 0 4.22-.23 5.87-.63l15.26-3.52c2.43-.55 4.3-2.97 4.3-5.48l-.39-93.57zM91.7 442.31l-8.11-.3c-.63 0-1.25-.63-1.25-1.25l-.08-52.49c3.15 2.58 6.29 5.16 9.44 7.74v46.31zm368.26 12.21-53.67-32.78 55.48-1.26v-83.8l-97.4 15.18v70.78c12.7-.27 25.39-.54 38.09-.82l53.28 32.54-221.24-7.35 10.09-8.29c1.1-.86 3.21-1.56 4.62-1.56l3.91.08c1.96.08 4.46-1.1 5.79-2.5l8.76-9.94c5.86-.13 11.73-.27 17.59-.4v-60.2c-18.24 2.84-36.49 5.69-54.73 8.53v52.88l34.25-.81-7.43 8.53c-.86 1.02-2.82 1.8-4.15 1.8l-3.91-.08c-1.88 0-4.54.86-5.95 2.03l-11.89 9.78-55.94-1.88 11.03-7.35c1.25-.78 3.05-1.25 3.83-1.1 1.41.31 3.76-.39 5.32-1.49l12.6-9c6.36-.12 12.73-.25 19.09-.37v-52.46c-14.33 2.23-28.67 4.47-43 6.7v46.72c6.77-.17 13.54-.33 20.31-.5l-10.09 7.2c-1.17.86-2.97 1.33-3.68 1.17-1.41-.31-3.76.31-5.4 1.41l-13.53 8.92-74.48-2.5 35.2-14.71c4.4-.04 8.79-.09 13.19-.13v-41.57c-9.02 1.41-18.03 2.81-27.05 4.22v37.95c2.72-.1 5.43-.21 8.15-.31l-32.94 13.85-.08-12.99 22.53-.63c.03-12.54.05-25.09.08-37.63l-23.94 3.83-9.23-7.67c.08 0 .08-.08.16-.08l409.94-78.39-14.86 25.97c-4.58.71-9.16 1.43-13.74 2.14v84.22c4.66-.1 9.32-.21 13.98-.31l.31 35.05-19.25-.63zm-68.68-56.13c.01-3.77.02-5.65.03-9.41 10.8-12.96 21.6-25.92 32.41-38.88 3.48-.5 5.25-.75 8.83-1.26v39.77c4.32-.34 6.51-.51 10.98-.86v7.14c-4.48.3-6.67.45-10.99.74v18.41c-3.76.14-5.61.21-9.26.35 0-7.28 0-10.89.01-18.14-10.68.72-21.35 1.43-32.03 2.15zm-135.97 22.88c-5.56.25-9.44-1.46-11.88-5.04-2.44-3.57-3.63-9.14-3.63-16.81s1.21-13.57 3.69-17.61c2.48-4.03 6.37-6.47 11.89-7.24 5.58-.78 9.82.6 12.51 4.23s4.06 9.53 4.03 17.61c-.03 8.33-1.44 14.53-4.18 18.52-2.74 4-6.95 6.08-12.43 6.33zm-46-33.97c-1.25-1.05-2.98-1.43-5.16-1.16-1.45.18-3.01.66-4.66 1.44s-3.25 1.84-4.79 3.19c-.09.01-.14.02-.23.03v-5.58c1.08-.76 2.53-1.52 4.37-2.29s3.65-1.28 5.42-1.52c3.65-.5 6.61.11 8.76 1.88 2.16 1.77 3.26 4.43 3.25 7.96 0 1.59-.19 3.08-.55 4.49-.36 1.4-.91 2.75-1.6 4.04-.65 1.2-1.42 2.41-2.29 3.58-.87 1.18-1.92 2.48-3.14 3.91q-2.61 3.075-5.34 5.91a815 815 0 0 1-5.01 5.18c7.44-.36 11.32-.55 19.48-.95 0 1.92 0 2.87-.01 4.79-10.26.39-15.08.56-24.22.91v-5.53c1.59-1.67 3.2-3.35 4.84-5.07 1.64-1.71 3.18-3.42 4.62-5.14 3.05-3.58 5.2-6.49 6.36-8.6 1.16-2.12 1.75-4.36 1.76-6.7 0-2.14-.62-3.74-1.87-4.79zm285.55 68.4c-4.51-.16-9.02-.31-13.53-.47V333.64c4.54-7.92 9.08-15.84 13.61-23.77l1.88 145.67c-.65.05-1.3.1-1.96.16m20.73-4.07-15.26 3.52c-.39.08-.86.16-1.33.23l-1.88-143.95 18.62 39.82c.55 1.25 1.1 3.52 1.1 4.93l.31 93.49c-.08.86-.78 1.72-1.56 1.96" class="cls-2"></path></g>
    </g>
  </g>
  <circle id="circle174" cx="115.626" cy="190.011" r="2.05" class="cls-2"></circle><circle id="circle176" cx="54.146" cy="186.841" r="2.05" class="cls-2"></circle><circle id="circle178" cx="174.876" cy="162.441" r="2.05" class="cls-2"></circle><circle id="circle180" cx="58.916" cy="175.171" r="2.05" class="cls-2"></circle><circle id="circle182" cx="40.506" cy="154.171" r="2.05" class="cls-2"></circle><circle id="circle184" cx="148.056" cy="164.321" r="2.05" class="cls-2"></circle><circle id="circle186" cx="57.556" cy="196.951" r="2.05" class="cls-2"></circle><circle id="circle188" cx="57.746" cy="91.401" r="2.05" class="cls-2"></circle><circle id="circle190" cx="92.406" cy="143.101" r="2.05" class="cls-2"></circle><circle id="circle192" cx="417.756" cy="178.811" r="2.05" class="cls-2"></circle><circle id="circle194" cx="114.176" cy="112.151" r="2.05" class="cls-2"></circle><circle id="circle196" cx="371.606" cy="198.311" r="2.05" class="cls-2"></circle><circle id="circle198" cx="74.406" cy="28.871" r="2.05" class="cls-2"></circle><circle id="circle200" cx="411.256" cy="122.481" r="2.05" class="cls-2"></circle><circle id="circle202" cx="334.296" cy="122.481" r="2.05" class="cls-2"></circle><circle id="circle204" cx="127.066" cy="214.861" r="2.05" class="cls-2"></circle><circle id="circle206" cx="134.886" cy="166.671" r="2.05" class="cls-2"></circle><path id="path208" d="M135.906 68.23a76.84 76.84 0 0 1 0-47.39c.2-.61.09-1.28-.29-1.79a2 2 0 0 0-1.62-.82c-14.51 0-26.31 11.8-26.31 26.31s11.8 26.31 26.31 26.31c.64 0 1.24-.31 1.62-.82.38-.52.48-1.18.29-1.79z" class="cls-2"></path>
  <path id="light" d="M411.486 27.73c-.08 0-.16.01-.25.02v-.02l-.19.03c-.07 0-.14.02-.21.04-46.97 8.3-93.93 16.61-140.9 24.91-1.43.25-2.48 1.5-2.48 2.96v5.63c0 1.48 1.07 2.73 2.53 2.97 46.83 7.5 93.65 15.01 140.48 22.51.34.11.69.17 1.03.16 5.62-.05 10.91-15.94 11.01-29.18.1-13.72-5.33-29.97-11.01-30.03z" class="cls-2" style="transform-origin: 268px 58px;"></path>
  <path id="path212" d="M213.136 219.78s-.04.03-.06.05-.04.03-.06.05c-.01 0-.04.02-.07.02-.07.02-.16.03-.25.05-.18.02-.39.03-.54.01a7.8 7.8 0 0 0-2.27.1c-1.01.2-1.93.67-2.74 1.17l-2.32 1.51c-1.52.97-3.13 1.69-4.87 1.99h-.04c-5.17 1.33-10.13 3.19-15.27 4.33-1.28.29-2.57.53-3.87.73-.65.09-1.3.19-1.95.25l-.98.1c-.33.03-.74.08-1.1.25-.37.16-.68.43-.92.66l-.72.68c-.48.45-.96.88-1.47 1.28-1.01.8-2.12 1.45-3.32 1.88-.6.21-1.23.37-1.87.52s-1.28.29-1.93.42c-1.29.25-2.59.46-3.9.65-1.3.19-2.62.32-3.94.54-1.32.21-2.62.49-3.92.79-2.58.62-5.15 1.49-7.56 2.52-.59.21-1.22.34-1.87.47-.66.12-1.3.27-1.93.36-1.28.19-2.59.27-3.9.27s-2.62-.07-3.94-.16l-1.99-.13c-.68-.03-1.39 0-2.08.16-.7.16-1.38.48-1.94.95-.56.48-.97.99-1.41 1.52-.84 1.05-1.58 2.14-2.47 3.05-.45.45-.93.87-1.45 1.22l-1.67 1.06c-1.11.73-2.19 1.47-3.34 2.06a12.6 12.6 0 0 1-3.6 1.23c-.63.12-1.26.17-1.9.2-.66.03-1.36.07-2.05.2s-1.42.33-2.06.82c-.65.48-1.05 1.24-1.23 1.94-.21.7-.2 1.48-.43 1.71-.15.26-.73.35-1.33.31l-.46-.04c-.44-.03-.62.12-.73.14l-.93.24-.99.26c-.51.15-.87.54-1.08.87-.43.7-.6 1.34-.85 1.92-.24.58-.52 1.08-.9 1.45-.4.36-.81.54-1.37.55-.56.02-1.24-.09-1.98-.07-.74.01-1.5.19-2.18.49-.68.29-1.3.7-1.85 1.19-1.27 1.13-1.89 2.36-2.44 3.51-.39.81-.87 1.99-1.2 3.49l.78 4.53c-.94.67-1.93 1.42-2.95 2.29a43 43 0 0 0-3.78 3.65l53.46-10.56c.14.07.35.1.58.06 33.03-5.92 69.65-12.66 102.84-18.7 33.17-6.11 69.8-12.85 102.74-19.16 22.82-4.34 45.63-8.71 68.47-12.92.05 0 .09-.03.1-.06.39-.74.46-1.52-.05-2.13-1.25-1.35-4.61-1.56-7.51-1.15-.61.1-1.18.3-1.71.27-1.89 0-2.22-1.1-3.59-1.52-1.27-.29-2.87-.15-4.36.13-.5.09-1.15.16-1.31-.13-.08-.12-.14-.28-.22-.43-.28-1.06-2.55-1.11-4.32-.85-1.48.19-2.93.56-4.28.43l-.81-.08-1.61-.18c-2.12-.25-4.23-.56-5.92-1.18-.92-.31-1.41-.8-2.31-1.15-.91-.37-2.32-.33-3.55-.14-2.44.36-4.71.99-7.04 1.34-2.31.38-4.65.62-6.83.56-2.25-.11-4.61-.1-6.97.05-1.92.12-5.21.46-7.09.62l-1.78.18-1.76.2c-2.83.31-5.44.02-7.63-.65-.71-.25-1.91-.34-2.93-.19l-.9.11c-6.53.83-12.7.67-19.2.97-3.96.54-6.99-1.2-11.11-.16l-.29.07c-.15.03-.31.06-.43.07-.08.01-.15 0-.16.01-1.25-.35-3.24-.16-4.76.15-.75.13-1.66.38-2.34.46-3.77.45-4.84.69-10.06 1.59-.74.13-1.88.33-3.28.61-.66-.2-1.64-.42-2.8-.29-.87.09-1.41.33-2.11.55 0 0-1.17.37-4.09.67-3.25.33-9.44-.46-12.27-.75-2.58-.26-9.61-.98-16.71-.07-1.05.14-3.01.42-5.8.55-3.9.17-3.7-.23-6.82-.07-4.3.22-5.93 1.05-10.23.75-.8-.06-1.46-.14-1.86-.19z" class="cls-2"></path>
  <g id="g224" transform="translate(-47.304 -93.18)"><path id="path214" d="M323.86 305.1h-2.37l-4.17-38.24a2.22 2.22 0 0 0 2.07-2.22c0-1.18-1-2.23-2.23-2.23h-.33l-3.89-35.68a2.23 2.23 0 0 0 1.73-2.17c0-1.22-.99-2.22-2.21-2.23l-2.69-24.67 3.8-5.99a.86.86 0 0 0 .03-.85.82.82 0 0 0-.73-.43h-17.74a.8.8 0 0 0-.22-.03l-24.37.03a.83.83 0 0 0-.73.43c-.15.27-.14.59.03.85l3.8 5.99-2.69 24.67a2.234 2.234 0 0 0-2.21 2.23c0 1.06.74 1.94 1.73 2.17l-3.89 35.68h-.33c-1.23 0-2.23 1-2.23 2.23s.92 2.13 2.07 2.22l-4.17 38.24h-2.37c-2.47 0-4.47 2-4.47 4.47s2 4.47 4.47 4.47h64.32c2.47 0 4.47-2 4.47-4.47s-2-4.47-4.47-4.47zm-35.97-94.6c0-2.09 1.71-3.81 3.81-3.81 2.09 0 3.81 1.71 3.81 3.81v9.33c0 .63-.51 1.13-1.13 1.13h-5.35c-.63 0-1.13-.51-1.13-1.13v-9.33zm-1.19 12.11h9.99c1.08 0 1.95.87 1.95 1.95s-.87 1.95-1.95 1.95h-9.99c-1.08 0-1.95-.87-1.95-1.95s.87-1.95 1.95-1.95m11.83 22.06v14.72c0 .92-.75 1.67-1.67 1.67h-10.34c-.92 0-1.67-.75-1.67-1.67v-14.72c0-3.35 2.74-6.1 6.1-6.1h1.48c3.35 0 6.1 2.74 6.1 6.1m1.73 58.73c0 1.36-1.11 2.47-2.47 2.47H285.6c-1.36 0-2.47-1.11-2.47-2.47v-17.14c0-4.71 3.86-8.57 8.57-8.57s8.57 3.86 8.57 8.57v17.14zm-.24-36.8h-16.64c-1.08 0-1.95-.87-1.95-1.95s.87-1.95 1.95-1.95h16.64c1.08 0 1.95.87 1.95 1.95s-.87 1.95-1.95 1.95" class="cls-2"></path><path id="path216" d="M319.03 175.64v-10.66c0-1.41-1.15-2.56-2.56-2.56h-7.56v-21.61s0-.07-.01-.1h.31a2.791 2.791 0 0 0 0-5.58h-35.03a2.791 2.791 0 0 0 0 5.58h.31s-.01.07-.01.1v21.61h-7.56c-1.41 0-2.56 1.15-2.56 2.56v10.66a2.78 2.78 0 0 0-2.55 2.77c0 1.54 1.25 2.79 2.79 2.79h1.46v3.69c0 1.74 1.42 3.16 3.16 3.16h44.93c1.74 0 3.16-1.42 3.16-3.16v-3.69h1.46c1.54 0 2.79-1.25 2.79-2.79 0-1.46-1.13-2.65-2.55-2.77zm-1.68-10.66v10.63h-2.46v-11.52h1.58c.49 0 .88.4.88.88zm-28.97-.89v6.68h-2.57c-.26 0-.5-.06-.72-.17v-6.51zm4.96 0v6.68h-3.29v-6.68zm4.97 0v6.51c-.22.11-.46.17-.72.17h-2.57v-6.68zm-23.16 8.48c.37.35.87.57 1.43.57h1.87v2.47h-3.29v-3.04zm33.09 3.04h-3.29v-2.47h1.87c.55 0 1.05-.22 1.42-.57zm-4.96 0h-3.29v-2.47h3.29zm-4.97 0h-3.29v-2.47h3.29zm-4.97 0h-3.29v-2.47h3.29zm-4.96 0h-3.29v-2.47h3.29zm-4.97 0h-3.29v-2.47h3.29zm29.8 0h-3.29v-11.52h3.29zm-39.74 0h-3.29v-11.52h3.29zm18.23-30.07c4.18 0 7.57 3.39 7.57 7.57v9.31h-15.13v-9.31c0-4.18 3.39-7.57 7.57-7.57zm-24.77 18.55h1.58v11.52h-2.46v-10.63c0-.49.4-.88.88-.88z" class="cls-2"></path>
    <g id="g222"><path id="path218" d="M305.65 127.4h-27.9a2.791 2.791 0 0 0 0 5.58h27.9a2.791 2.791 0 0 0 0-5.58" class="cls-2"></path><path id="path220" d="M278.76 125.42h25.88c.25 0 .47-.17.54-.41s-.04-.5-.25-.63l-5.89-3.5-5.24-4.51-.55-2.43h.37c.24 0 .45-.15.53-.38s0-.48-.2-.62l-1.91-1.42a.555.555 0 0 0-.67 0l-1.91 1.42c-.19.14-.27.4-.2.62s.29.38.53.38h.37l-.55 2.43-5.24 4.51-5.89 3.5c-.22.13-.32.39-.25.63s.29.41.54.41z" class="cls-2"></path></g>
  </g>
  <path fill="#fff" d="m123.442 377.857 2.386.079.518-15.677.055.002 5.692 15.882 3.281.108.64-19.361-2.386-.079-.534 16.162-.055-.002-5.866-16.373-3.092-.102zm17.138-16.193 2.277.075.086-2.604-2.278-.075zm-.554 16.756 2.278.076.48-14.535-2.278-.075zm16.85-13.997-2.17-.072-.061 1.844-.054-.002c-.26-1.175-1.472-2.274-3.072-2.327-3.689-.121-4.869 3.56-4.999 7.491-.063 1.925.032 7.276 4.262 7.416 1.437.048 2.79-.64 3.346-1.843l.054.001-.062 1.898c-.033 1.004 0 3.258-2.929 3.161-1.193-.039-2.206-.588-2.27-1.92l-2.279-.076c.232 3.646 3.758 3.762 4.653 3.792 2.902.095 4.988-1.41 5.131-5.75zm-5.124 1.405c2.468.081 2.834 2.972 2.741 5.792-.098 2.983-.637 5.3-3.132 5.218-2.278-.075-2.532-3.044-2.454-5.402.115-3.471.757-5.676 2.845-5.607m9.083 13.263 2.277.075.331-10.037c.07-2.088 1.752-2.874 2.972-2.834 2.06.068 2.082 1.888 2.045 3l-.331 10.037 2.278.075.34-10.303c.057-1.736.18-4.609-3.59-4.733-1.302-.043-2.93.745-3.566 1.918l-.054-.002.214-6.482-2.278-.075zm15.105-14.04-2.115-.07-.06 1.79 2.116.07-.332 10.035c-.062 1.898.448 2.892 2.834 2.971.95.031 1.549-.03 1.85-.102l.062-1.871c-.245.019-.49.065-1.006.048-1.193-.04-1.477-.51-1.438-1.676l.308-9.33 2.522.084.059-1.79-2.522-.083.14-4.23-2.279-.076zm16.145 4.796c.056-1.708-.037-4.644-4.268-4.783-2.522-.084-4.68 1.148-4.77 3.86-.098 2.983 1.701 3.585 3.444 4.24 1.717.627 3.519 1.121 3.455 3.074-.069 2.06-1.761 2.358-2.493 2.334-2.251-.075-2.66-1.69-2.602-3.453l-2.278-.075c-.049 1.492-.115 5.155 4.82 5.317 2.713.09 4.742-1.363 4.842-4.4.096-2.903-1.7-3.586-3.417-4.213-1.771-.629-3.55-1.013-3.493-2.748.067-2.034 1.7-2.17 2.433-2.146 1.654.054 2.11 1.074 2.049 2.918zm11.076 3.358c-.135 4.095.779 7.682 4.982 7.82 4.177.138 5.35-3.38 5.486-7.474s-.778-7.682-4.98-7.82-5.352 3.379-5.487 7.474m4.987 6.029c-2.333-.077-2.704-2.805-2.6-5.95s.681-5.842 2.986-5.766c2.468.082 2.813 2.808 2.709 5.954s-.682 5.841-3.096 5.762m9.636 1.737 2.278.075.421-12.743 2.496.082.059-1.79-2.496-.082.057-1.708c.033-1.004.533-1.367 1.51-1.335l1.057.035.065-1.953-1.654-.054c-2.197-.073-3.184 1.035-3.256 3.231l-.057 1.709-2.115-.07-.06 1.79 2.116.07zm15.182-6.782c-.135 4.095.778 7.682 4.981 7.82 4.177.138 5.351-3.38 5.487-7.474s-.778-7.682-4.981-7.82-5.352 3.379-5.487 7.474m4.986 6.029c-2.332-.077-2.703-2.805-2.6-5.95s.682-5.842 2.987-5.766c2.468.082 2.813 2.808 2.709 5.954s-.682 5.841-3.096 5.762m8.822 6.502 2.278.075.212-6.427.055.002a3.26 3.26 0 0 0 2.97 2.134c3.77.125 4.898-4.453 5.007-7.762.143-4.34-1.058-7.42-4.502-7.534-1.573-.052-2.884.992-3.218 2.066l-.054-.001.059-1.79-2.17-.072zm2.54-11.97c.11-3.336.622-5.68 3.117-5.598 2.089.069 2.584 2.311 2.478 5.511-.124 3.77-.766 5.948-2.854 5.879-2.468-.082-2.834-2.972-2.74-5.792m21.346.997.03-.923c.105-3.145-.175-7.01-4.623-7.156-4.475-.148-5.32 4.06-5.438 7.667-.166 5.017 1.218 7.506 4.798 7.624 3.986.132 5-3.445 5.051-4.992l-2.278-.075c-.037 1.113-.409 3.353-2.579 3.282-2.793-.093-2.683-3.428-2.608-5.679zm-7.507-2.04.018-.543c.029-.868.396-3.787 2.783-3.708 2.034.067 2.458 2.008 2.405 3.635l-.026.787zm11.189 9.132 2.278.074.331-10.036c.07-2.089 1.751-2.874 2.972-2.834 2.06.068 2.082 1.887 2.045 3l-.331 10.036 2.278.075.34-10.302c.057-1.736.152-4.61-3.672-4.736-1.41-.047-2.927.663-3.594 1.972l-.055-.002.057-1.71-2.17-.07zm22.06.728 2.386.078.217-6.59 2.098-2.673 4.926 9.506 2.658.087-5.974-11.49 6.125-7.887-2.658-.088-7.008 9.159-.055-.002.31-9.388-2.386-.078zm14.863.49 2.278.076.332-10.037c.068-2.089 1.75-2.874 2.97-2.834 2.062.068 2.084 1.887 2.047 3l-.331 10.036 2.277.075.34-10.302c.057-1.736.152-4.61-3.672-4.736-1.41-.047-2.927.663-3.594 1.972l-.054-.002.056-1.71-2.169-.07zm13.539-6.836c-.135 4.095.778 7.682 4.98 7.82 4.178.138 5.352-3.379 5.488-7.474s-.778-7.682-4.981-7.82-5.351 3.38-5.486 7.474m4.986 6.029c-2.331-.077-2.703-2.804-2.6-5.95s.682-5.841 2.987-5.765c2.468.081 2.812 2.808 2.708 5.953s-.681 5.842-3.095 5.762m11.357 1.794 2.657.088 2.833-11.795.054.002 2.158 11.96 2.494.082 3.924-14.421-2.386-.08-2.643 11.801-.055-.001-2.021-11.955-2.685-.089-2.86 11.794-.054-.002-1.94-11.952-2.386-.079zm16.975.56 2.278.076.64-19.362-2.278-.075zm16.58-6.422.03-.923c.104-3.145-.176-7.01-4.624-7.156-4.474-.148-5.319 4.06-5.438 7.667-.165 5.017 1.218 7.506 4.798 7.624 3.987.132 5-3.445 5.052-4.992l-2.278-.075c-.037 1.113-.41 3.353-2.58 3.282-2.792-.092-2.682-3.428-2.608-5.679zm-7.507-2.04.018-.543c.028-.868.396-3.787 2.782-3.708 2.034.067 2.459 2.008 2.405 3.635l-.026.787zm21.448-9.873-2.278-.075-.214 6.482-.054-.002c-.473-1.292-1.831-2.097-3.132-2.14-4.123-.136-4.736 4.459-4.837 7.496-.15 4.556 1.05 7.69 4.494 7.805 1.573.052 2.883-.991 3.218-2.066l.054.002-.06 1.79 2.17.072zm-8.128 11.839c.115-3.471.758-5.676 2.846-5.608 2.467.082 2.834 2.972 2.741 5.792-.11 3.336-.622 5.68-3.117 5.598-2.089-.069-2.585-2.311-2.47-5.782m21.919-6.579-2.17-.071-.06 1.844-.055-.002c-.26-1.176-1.472-2.274-3.072-2.327-3.688-.122-4.869 3.559-4.998 7.49-.064 1.926.031 7.277 4.262 7.417 1.437.047 2.79-.64 3.346-1.844l.054.002-.063 1.898c-.033 1.003.001 3.258-2.927 3.16-1.194-.039-2.207-.587-2.272-1.92l-2.278-.075c.232 3.645 3.758 3.762 4.653 3.791 2.902.096 4.987-1.41 5.13-5.749zm-5.123 1.405c2.468.082 2.834 2.973 2.74 5.792-.098 2.984-.636 5.301-3.13 5.219-2.278-.075-2.534-3.044-2.456-5.403.115-3.47.758-5.676 2.846-5.607m18.851 6.616.03-.923c.105-3.145-.175-7.01-4.622-7.156-4.475-.148-5.32 4.06-5.44 7.667-.165 5.017 1.219 7.506 4.799 7.624 3.986.132 5-3.445 5.051-4.992l-2.278-.075c-.037 1.112-.409 3.353-2.578 3.282-2.794-.093-2.684-3.428-2.61-5.679zm-7.507-2.04.018-.543c.029-.868.397-3.787 2.783-3.708 2.034.067 2.458 2.008 2.405 3.635l-.026.787z" aria-label="Nights of open Knowledge"></path>
</svg>